<svg width="14" height="16" viewBox="0 0 14 16" fill="none" xmlns="http://www.w3.org/2000/svg">
<path d="M8.96058 2.75261C9.49571 2.10728 9.85375 1.20841 9.7575 0.31723C8.98752 0.347961 8.05585 0.831964 7.50531 1.47346C7.00867 2.04581 6.57748 2.96004 6.69683 3.83586C7.55536 3.90116 8.42929 3.39795 8.96058 2.75261Z" fill="black"/>
<path d="M11.1743 8.42621C11.1589 6.49403 12.7566 5.56444 12.8298 5.51834C11.9289 4.2123 10.5314 4.02792 10.0309 4.00871C8.84125 3.88963 7.70553 4.70783 7.10109 4.70783C6.49666 4.70783 5.56498 4.02792 4.57555 4.04713C3.27813 4.06633 2.08081 4.80002 1.41093 5.96009C0.0673111 8.29945 1.06829 11.7566 2.38496 13.6504C3.02789 14.5761 3.79402 15.6171 4.79885 15.5825C5.76903 15.5441 6.13092 14.9564 7.30514 14.9564C8.47551 14.9564 8.8066 15.5825 9.82683 15.5633C10.8702 15.5403 11.5323 14.6184 12.1714 13.6849C12.9068 12.6132 13.2109 11.5684 13.2263 11.5185C13.207 11.5031 11.1974 10.7387 11.1743 8.43005V8.42621Z" fill="black"/>
</svg>
