<svg width="16" height="16" viewBox="0 0 16 16" fill="none" xmlns="http://www.w3.org/2000/svg">
<path d="M7.33398 10.7759L12.021 6.10992L11.25 5.33892L7.33398 9.23492L5.56298 7.48492L4.79198 8.25592L7.33398 10.7759ZM8.41698 15.6509C7.37565 15.6509 6.39298 15.4533 5.46898 15.0579C4.54565 14.6619 3.73998 14.1203 3.05198 13.4329C2.36465 12.7449 1.82298 11.9393 1.42698 11.0159C1.03165 10.0919 0.833984 9.10926 0.833984 8.06792C0.833984 7.01259 1.03165 6.02659 1.42698 5.10992C1.82298 4.19326 2.36465 3.39092 3.05198 2.70292C3.73998 2.01559 4.54565 1.47392 5.46898 1.07792C6.39298 0.682591 7.37565 0.484924 8.41698 0.484924C9.47232 0.484924 10.4583 0.682591 11.375 1.07792C12.2917 1.47392 13.094 2.01559 13.782 2.70292C14.4693 3.39092 15.011 4.19326 15.407 5.10992C15.8023 6.02659 16 7.01259 16 8.06792C16 9.10926 15.8023 10.0919 15.407 11.0159C15.011 11.9393 14.4693 12.7449 13.782 13.4329C13.094 14.1203 12.2917 14.6619 11.375 15.0579C10.4583 15.4533 9.47232 15.6509 8.41698 15.6509ZM8.41698 14.5679C10.2223 14.5679 11.757 13.9359 13.021 12.6719C14.285 11.4079 14.917 9.87326 14.917 8.06792C14.917 6.26259 14.285 4.72792 13.021 3.46392C11.757 2.19992 10.2223 1.56792 8.41698 1.56792C6.61165 1.56792 5.07698 2.19992 3.81298 3.46392C2.54898 4.72792 1.91698 6.26259 1.91698 8.06792C1.91698 9.87326 2.54898 11.4079 3.81298 12.6719C5.07698 13.9359 6.61165 14.5679 8.41698 14.5679Z" fill="black"/>
</svg>
