<svg width="84" height="21" viewBox="0 0 84 21" fill="none" xmlns="http://www.w3.org/2000/svg">
<path fill-rule="evenodd" clip-rule="evenodd" d="M8.94725 0.0538457L10.0636 0.0538177L14.5382 2.63725L14.5381 4.57077L11.7379 6.18689L14.5384 7.80375L14.5382 9.73727L7.26534 13.9348L10.0653 15.5514L10.0653 17.4848L5.59081 20.0679L4.47457 20.0679L-6.10352e-05 17.4845L-2.68623e-05 15.551L2.79992 13.9346L0.00182366 12.3191L0.0017753 10.3857L2.80151 8.7691L0.00167021 7.15261L0.00162176 5.2192L8.94725 0.0538457ZM9.50547 2.30951L2.79225 6.18584L5.03246 7.47922L11.7472 3.6038L9.50547 2.30951ZM9.50562 7.47601L2.7924 11.3523L5.03261 12.6457L11.7474 8.7703L9.50562 7.47601ZM2.79068 16.5178L5.0325 15.2236L7.27455 16.518L5.03273 17.8122L2.79068 16.5178Z" fill="#0F172A"/>
<path d="M35.2483 4.78501H23.7825V15.848H26.9898V12.5787H34.3187V9.86718H26.9898V7.51203H35.2483V4.78501Z" fill="#0F172A"/>
<path d="M43.1118 6.33445C40.8186 6.33445 38.7888 6.67533 36.821 7.17115L37.3943 9.27839C39.5481 8.7206 41.0975 8.51917 42.6159 8.51917C44.1344 8.51917 45.8388 8.81356 45.9318 10.425C44.6302 10.1151 43.0963 9.86718 41.4694 9.86718C38.7578 9.86718 36.0618 10.5644 36.0618 13.0435C36.0618 15.2128 37.7817 16.0495 40.3538 16.0495C42.2286 16.0495 44.2274 15.5846 45.9318 14.655V15.848H48.9222V11.1377C48.8912 7.5895 46.9854 6.33445 43.1118 6.33445ZM41.3609 13.8647C39.9044 13.8647 39.2072 13.6478 39.2072 12.8886C39.2072 12.1294 40.0904 11.835 41.8412 11.835C43.3287 11.835 44.7232 12.0364 45.9318 12.2998V13.09C44.6767 13.4309 42.6005 13.8647 41.3609 13.8647Z" fill="#0F172A"/>
<path d="M50.4228 12.7491C50.4693 15.4452 53.2893 16.1579 57.1164 16.1579C60.6337 16.1579 63.0353 15.5536 63.0353 12.9506C63.0353 10.487 60.7421 10.3785 57.1319 10.0686C54.2964 9.8207 53.8626 9.71224 53.8626 9.13894C53.8626 8.62763 54.4669 8.31774 56.5586 8.31774C58.6349 8.31774 59.5336 8.55016 59.58 9.40235H62.7254C62.555 7.00071 59.9519 6.33445 56.6826 6.33445C53.4443 6.33445 50.7172 6.93874 50.7172 9.35587C50.7172 11.4786 52.6385 11.8195 56.5121 12.0984C59.3786 12.2998 59.8899 12.3618 59.8899 13.09C59.8899 13.7718 59.4716 14.0817 56.9615 14.0817C54.3274 14.0817 53.5992 13.6633 53.5527 12.7491H50.4228Z" fill="#0F172A"/>
<path d="M73.0336 6.64434H68.943V3.96381L65.9526 4.8005V6.64434H63.7989V8.93752H65.9526V12.6717C65.9526 15.1663 67.1922 16.1579 69.9657 16.1579C71.0968 16.1579 72.0884 16.003 73.0336 15.817V13.3844C71.9645 13.5858 71.4376 13.6478 70.6629 13.6478C69.2839 13.6478 68.943 13.09 68.943 11.8195V8.93752H73.0336V6.64434Z" fill="#0F172A"/>
<path d="M83.3834 6.64434H79.2928V3.96381L76.3024 4.8005V6.64434H74.1487V8.93752H76.3024V12.6717C76.3024 15.1663 77.542 16.1579 80.3155 16.1579C81.4466 16.1579 82.4382 16.003 83.3834 15.817V13.3844C82.3142 13.5858 81.7874 13.6478 81.0127 13.6478C79.6337 13.6478 79.2928 13.09 79.2928 11.8195V8.93752H83.3834V6.64434Z" fill="#0F172A"/>
</svg>
