<svg width="22" height="14" viewBox="0 0 22 14" fill="none" xmlns="http://www.w3.org/2000/svg">
<path fill-rule="evenodd" clip-rule="evenodd" d="M8.10107 12.1459H13.8987V1.75468H8.10107V12.1459Z" fill="#FF5F00"/>
<path fill-rule="evenodd" clip-rule="evenodd" d="M8.46928 6.95031C8.46928 4.84228 9.45766 2.96258 10.9999 1.75468C9.83245 0.837999 8.39299 0.33829 6.90709 0.3416C3.24873 0.3416 0.283569 3.30013 0.283569 6.95031C0.283569 10.6005 3.24873 13.559 6.90709 13.559C8.45269 13.559 9.87226 13.0295 10.9999 12.1459C9.45766 10.9347 8.46928 9.05835 8.46928 6.95031Z" fill="#EB001B"/>
<path fill-rule="evenodd" clip-rule="evenodd" d="M21.7164 6.95031C21.7164 10.6005 18.7512 13.559 15.0929 13.559C13.607 13.559 12.1642 13.0626 11 12.1459C12.5423 10.9347 13.5307 9.05835 13.5307 6.95031C13.5307 4.84228 12.5423 2.96589 11 1.75468C12.1675 0.837999 13.607 0.33829 15.0929 0.3416C18.7512 0.3416 21.7164 3.30013 21.7164 6.95031Z" fill="#F79E1B"/>
</svg>
