<svg width="14" height="16" viewBox="0 0 14 16" fill="none" xmlns="http://www.w3.org/2000/svg">
<path fill-rule="evenodd" clip-rule="evenodd" d="M6.06964 3.9383H10.3553C12.6581 3.9383 13.5231 5.10092 13.3888 6.80741C13.1676 9.62923 11.4573 11.186 9.19403 11.186H8.04855C7.7365 11.186 7.52716 11.3909 7.44421 11.9466L6.95837 15.1822C6.92677 15.3911 6.81617 15.5133 6.65028 15.529H3.95643C3.70363 15.529 3.61279 15.3359 3.67994 14.9182L5.3231 4.54523C5.3863 4.13141 5.6154 3.93042 6.06964 3.93042V3.9383Z" fill="#009EE3"/>
<path fill-rule="evenodd" clip-rule="evenodd" d="M3.38769 0.371597H7.68126C8.88994 0.371597 10.3238 0.411007 11.2836 1.2544C11.9235 1.81798 12.2592 2.71655 12.1842 3.68211C11.9195 6.95322 9.96036 8.78188 7.32972 8.78188H5.21256C4.85312 8.78188 4.61217 9.02228 4.51342 9.66468L3.92093 13.4205C3.88143 13.6649 3.77874 13.8068 3.58914 13.8265H0.942695C0.6504 13.8265 0.543747 13.6058 0.622746 13.1171L2.52661 1.08493C2.60166 0.600179 2.87026 0.371597 3.39164 0.371597H3.38769Z" fill="#113984"/>
<path fill-rule="evenodd" clip-rule="evenodd" d="M4.57666 9.28633L5.32714 4.55309C5.39429 4.13928 5.61944 3.93828 6.07368 3.93828H10.3593C11.0703 3.93828 11.6431 4.04863 12.0934 4.25357C11.6628 7.16603 9.77476 8.78188 7.30606 8.78188H5.19285C4.90845 8.78188 4.70306 8.92375 4.57666 9.28633V9.28633Z" fill="#172C70"/>
</svg>
